<svg xmlns="http://www.w3.org/2000/svg" xmlns:xlink="http://www.w3.org/1999/xlink" class="railroad-diagram" width="330" height="62" viewBox="0 0 330 62">
  <defs>
    <style type="text/css"><![CDATA[
      path {
        stroke-width: 3;
        stroke: black;
        fill: rgba(0,0,0,0);
      }
      text {
        font: bold 14px monospace;
        text-anchor: middle;
        white-space: pre;
        fill: black;
      }
      text.diagram-text {
        font-size: 12px;
      }
      text.diagram-arrow {
        font-size: 16px;
      }
      text.label {
        text-anchor: start;
      }
      text.comment {
        font: italic 12px monospace;
      }
      rect {
        stroke-width: 3;
        stroke: black;
        fill: hsl(180,100%,90%);
      }
      rect[rx] {
        fill: hsl(120,100%,90%);
      }
      rect.group-box {
        stroke: gray;
        stroke-dasharray: 10 5;
        fill: none;
      }
      path.diagram-text {
        stroke-width: 3;
        stroke: black;
        fill: white;
        cursor: help;
      }
      g.diagram-text:hover path.diagram-text {
        fill: #eee;
      }
    ]]></style>
  </defs>

<g transform="translate(.5 .5)">
<g>
<path d="M20 21v20m10 -20v20m-10 -10h20"></path>
</g>
<path d="M40 31h10"></path>
<g class="terminal">
<path d="M50 31h0"></path>
<path d="M155 31h0"></path>
<rect x="50" y="20" width="105" height="22" rx="10" ry="10"></rect>
<text x="102.5" y="35">continueif</text>
</g>
<path d="M155 31h10"></path>
<path d="M165 31h10"></path>
<g class="non-terminal">
<path d="M175 31h0"></path>
<path d="M280 31h0"></path>
<rect x="175" y="20" width="105" height="22"></rect>
<a xlink:href="#expression"><text x="227.5" y="35">Expression</text>
</a>
</g>
<path d="M280 31h10"></path>
<path d="M 290 31 h 20 m -10 -10 v 20 m 10 -20 v 20"></path>
</g>
</svg>
