<svg xmlns="http://www.w3.org/2000/svg" xmlns:xlink="http://www.w3.org/1999/xlink" class="railroad-diagram" width="603" height="343" viewBox="0 0 603 343">
  <defs>
    <style type="text/css"><![CDATA[
      path {
        stroke-width: 3;
        stroke: black;
        fill: rgba(0,0,0,0);
      }
      text {
        font: bold 14px monospace;
        text-anchor: middle;
        white-space: pre;
        fill: black;
      }
      text.diagram-text {
        font-size: 12px;
      }
      text.diagram-arrow {
        font-size: 16px;
      }
      text.label {
        text-anchor: start;
      }
      text.comment {
        font: italic 12px monospace;
      }
      rect {
        stroke-width: 3;
        stroke: black;
        fill: hsl(180,100%,90%);
      }
      rect[rx] {
        fill: hsl(120,100%,90%);
      }
      rect.group-box {
        stroke: gray;
        stroke-dasharray: 10 5;
        fill: none;
      }
      path.diagram-text {
        stroke-width: 3;
        stroke: black;
        fill: white;
        cursor: help;
      }
      g.diagram-text:hover path.diagram-text {
        fill: #eee;
      }
    ]]></style>
  </defs>

<g transform="translate(.5 .5)">
<g>
<path d="M20 21v20m10 -20v20m-10 -10h20"></path>
</g>
<path d="M40 31h10"></path>
<g>
<path d="M50 31h0"></path>
<path d="M50 31h10"></path>
<g class="terminal">
<path d="M60 31h52.5"></path>
<path d="M166.5 31h52.5"></path>
<rect x="112.5" y="20" width="54" height="22" rx="10" ry="10"></rect>
<text x="139.5" y="35">name</text>
</g>
<path d="M219 31a10 10 0 0 1 10 10v0a10 10 0 0 1 -10 10h-159a10 10 0 0 0 -10 10v0a10 10 0 0 0 10 10"></path>
<g class="non-terminal">
<path d="M60 71h27"></path>
<path d="M192 71h27"></path>
<rect x="87" y="60" width="105" height="22"></rect>
<a xlink:href="#identifier"><text x="139.5" y="75">Identifier</text>
</a>
</g>
<path d="M219 71a10 10 0 0 1 10 10v0a10 10 0 0 1 -10 10h-159a10 10 0 0 0 -10 10v0a10 10 0 0 0 10 10"></path>
<g class="terminal">
<path d="M60 111h44"></path>
<path d="M175 111h44"></path>
<rect x="104" y="100" width="71" height="22" rx="10" ry="10"></rect>
<text x="139.5" y="115">parent</text>
</g>
<path d="M219 111a10 10 0 0 1 10 10v0a10 10 0 0 1 -10 10h-159a10 10 0 0 0 -10 10v0a10 10 0 0 0 10 10"></path>
<g class="terminal">
<path d="M60 151h65.25"></path>
<path d="M153.75 151h65.25"></path>
<rect x="125.25" y="140" width="28.5" height="22" rx="10" ry="10"></rect>
<text x="139.5" y="155">#</text>
</g>
<path d="M219 151a10 10 0 0 1 10 10v0a10 10 0 0 1 -10 10h-159a10 10 0 0 0 -10 10v0a10 10 0 0 0 10 10"></path>
<g class="non-terminal">
<path d="M60 191h10"></path>
<path d="M209 191h10"></path>
<rect x="70" y="180" width="139" height="22"></rect>
<a xlink:href="#integerliteral"><text x="139.5" y="195">IntegerLiteral</text>
</a>
</g>
<path d="M219 191h10"></path>
<path d="M229 191h0"></path>
</g>
<path d="M229 191h10"></path>
<path d="M239 191h10"></path>
<g>
<path d="M249 191h0"></path>
<path d="M249 191h10"></path>
<g>
<path d="M259 191h25.5"></path>
<path d="M517.5 191h25.5"></path>
<path d="M284.5 191a10 10 0 0 0 10 -10v0a10 10 0 0 1 10 -10"></path>
<g>
<path d="M304.5 171h193"></path>
</g>
<path d="M497.5 171a10 10 0 0 1 10 10v0a10 10 0 0 0 10 10"></path>
<path d="M284.5 191h20"></path>
<g>
<path d="M304.5 191h0"></path>
<path d="M497.5 191h0"></path>
<path d="M304.5 191h10"></path>
<g class="non-terminal">
<path d="M314.5 191h0"></path>
<path d="M487.5 191h0"></path>
<rect x="314.5" y="180" width="173" height="22"></rect>
<a xlink:href="#oldfeatureaddition"><text x="401" y="195">OldFeatureAddition</text>
</a>
</g>
<path d="M487.5 191h10"></path>
<path d="M314.5 191a10 10 0 0 0 -10 10v0a10 10 0 0 0 10 10"></path>
<g>
<path d="M314.5 211h173"></path>
</g>
<path d="M487.5 211a10 10 0 0 0 10 -10v0a10 10 0 0 0 -10 -10"></path>
</g>
<path d="M497.5 191h20"></path>
</g>
<path d="M543 191a10 10 0 0 1 10 10v8a10 10 0 0 1 -10 10h-284a10 10 0 0 0 -10 10v8a10 10 0 0 0 10 10"></path>
<g>
<path d="M259 247h0"></path>
<path d="M543 247h0"></path>
<path d="M259 247a10 10 0 0 0 10 -10v0a10 10 0 0 1 10 -10"></path>
<g>
<path d="M279 227h244"></path>
</g>
<path d="M523 227a10 10 0 0 1 10 10v0a10 10 0 0 0 10 10"></path>
<path d="M259 247h20"></path>
<g>
<path d="M279 247h0"></path>
<path d="M523 247h0"></path>
<path d="M279 247h10"></path>
<g class="non-terminal">
<path d="M289 247h0"></path>
<path d="M513 247h0"></path>
<rect x="289" y="236" width="224" height="22"></rect>
<a xlink:href="#oldfeatureinitialization"><text x="401" y="251">OldFeatureInitialization</text>
</a>
</g>
<path d="M513 247h10"></path>
<path d="M289 247a10 10 0 0 0 -10 10v0a10 10 0 0 0 10 10"></path>
<g>
<path d="M289 267h224"></path>
</g>
<path d="M513 267a10 10 0 0 0 10 -10v0a10 10 0 0 0 -10 -10"></path>
</g>
<path d="M523 247h20"></path>
</g>
<path d="M543 247a10 10 0 0 1 10 10v8a10 10 0 0 1 -10 10h-284a10 10 0 0 0 -10 10v8a10 10 0 0 0 10 10"></path>
<g>
<path d="M259 303h17"></path>
<path d="M526 303h17"></path>
<path d="M276 303a10 10 0 0 0 10 -10v0a10 10 0 0 1 10 -10"></path>
<g>
<path d="M296 283h210"></path>
</g>
<path d="M506 283a10 10 0 0 1 10 10v0a10 10 0 0 0 10 10"></path>
<path d="M276 303h20"></path>
<g>
<path d="M296 303h0"></path>
<path d="M506 303h0"></path>
<path d="M296 303h10"></path>
<g class="non-terminal">
<path d="M306 303h0"></path>
<path d="M496 303h0"></path>
<rect x="306" y="292" width="190" height="22"></rect>
<a xlink:href="#oldscriptdeclaration"><text x="401" y="307">OldScriptDeclaration</text>
</a>
</g>
<path d="M496 303h10"></path>
<path d="M306 303a10 10 0 0 0 -10 10v0a10 10 0 0 0 10 10"></path>
<g>
<path d="M306 323h190"></path>
</g>
<path d="M496 323a10 10 0 0 0 10 -10v0a10 10 0 0 0 -10 -10"></path>
</g>
<path d="M506 303h20"></path>
</g>
<path d="M543 303h10"></path>
<path d="M553 303h0"></path>
</g>
<path d="M553 303h10"></path>
<path d="M 563 303 h 20 m -10 -10 v 20 m 10 -20 v 20"></path>
</g>
</svg>
