<svg xmlns="http://www.w3.org/2000/svg" xmlns:xlink="http://www.w3.org/1999/xlink" class="railroad-diagram" width="228.5" height="154" viewBox="0 0 228.5 154">
  <defs>
    <style type="text/css"><![CDATA[
      path {
        stroke-width: 3;
        stroke: black;
        fill: rgba(0,0,0,0);
      }
      text {
        font: bold 14px monospace;
        text-anchor: middle;
        white-space: pre;
        fill: black;
      }
      text.diagram-text {
        font-size: 12px;
      }
      text.diagram-arrow {
        font-size: 16px;
      }
      text.label {
        text-anchor: start;
      }
      text.comment {
        font: italic 12px monospace;
      }
      rect {
        stroke-width: 3;
        stroke: black;
        fill: hsl(180,100%,90%);
      }
      rect[rx] {
        fill: hsl(120,100%,90%);
      }
      rect.group-box {
        stroke: gray;
        stroke-dasharray: 10 5;
        fill: none;
      }
      path.diagram-text {
        stroke-width: 3;
        stroke: black;
        fill: white;
        cursor: help;
      }
      g.diagram-text:hover path.diagram-text {
        fill: #eee;
      }
    ]]></style>
  </defs>

<g transform="translate(.5 .5)">
<g>
<path d="M20 21v20m10 -20v20m-10 -10h20"></path>
</g>
<path d="M40 31h10"></path>
<g>
<path d="M50 31h0"></path>
<path d="M178.5 31h0"></path>
<path d="M50 31h10"></path>
<g>
<path d="M60 31h0"></path>
<path d="M168.5 31h0"></path>
<path d="M60 31h20"></path>
<g>
<path d="M80 31h0"></path>
<path d="M148.5 31h0"></path>
<path d="M80 31h20"></path>
<g class="terminal">
<path d="M100 31h0"></path>
<path d="M128.5 31h0"></path>
<rect x="100" y="20" width="28.5" height="22" rx="10" ry="10"></rect>
<text x="114.25" y="35">a</text>
</g>
<path d="M128.5 31h20"></path>
<path d="M80 31a10 10 0 0 1 10 10v7a10 10 0 0 0 10 10"></path>
<g>
<path d="M100 58h2.25"></path>
<path d="M126.25 58h2.25"></path>
<text x="114.25" y="63" class="comment">..</text>
</g>
<path d="M128.5 58a10 10 0 0 0 10 -10v-7a10 10 0 0 1 10 -10"></path>
<path d="M80 31a10 10 0 0 1 10 10v34a10 10 0 0 0 10 10"></path>
<g class="terminal">
<path d="M100 85h0"></path>
<path d="M128.5 85h0"></path>
<rect x="100" y="74" width="28.5" height="22" rx="10" ry="10"></rect>
<text x="114.25" y="89">f</text>
</g>
<path d="M128.5 85a10 10 0 0 0 10 -10v-34a10 10 0 0 1 10 -10"></path>
</g>
<path d="M148.5 31h20"></path>
<path d="M60 31a10 10 0 0 1 10 10v64a10 10 0 0 0 10 10"></path>
<g class="non-terminal">
<path d="M80 115h3"></path>
<path d="M145.5 115h3"></path>
<rect x="83" y="104" width="62.5" height="22"></rect>
<a xlink:href="#digit"><text x="114.25" y="119">Digit</text>
</a>
</g>
<path d="M148.5 115a10 10 0 0 0 10 -10v-64a10 10 0 0 1 10 -10"></path>
</g>
<path d="M168.5 31h10"></path>
<path d="M60 31a10 10 0 0 0 -10 10v83a10 10 0 0 0 10 10"></path>
<g>
<path d="M60 134h108.5"></path>
</g>
<path d="M168.5 134a10 10 0 0 0 10 -10v-83a10 10 0 0 0 -10 -10"></path>
</g>
<path d="M178.5 31h10"></path>
<path d="M 188.5 31 h 20 m -10 -10 v 20 m 10 -20 v 20"></path>
</g>
</svg>
