<svg xmlns="http://www.w3.org/2000/svg" xmlns:xlink="http://www.w3.org/1999/xlink" class="railroad-diagram" width="635" height="139" viewBox="0 0 635 139">
  <defs>
    <style type="text/css"><![CDATA[
      path {
        stroke-width: 3;
        stroke: black;
        fill: rgba(0,0,0,0);
      }
      text {
        font: bold 14px monospace;
        text-anchor: middle;
        white-space: pre;
        fill: black;
      }
      text.diagram-text {
        font-size: 12px;
      }
      text.diagram-arrow {
        font-size: 16px;
      }
      text.label {
        text-anchor: start;
      }
      text.comment {
        font: italic 12px monospace;
      }
      rect {
        stroke-width: 3;
        stroke: black;
        fill: hsl(180,100%,90%);
      }
      rect[rx] {
        fill: hsl(120,100%,90%);
      }
      rect.group-box {
        stroke: gray;
        stroke-dasharray: 10 5;
        fill: none;
      }
      path.diagram-text {
        stroke-width: 3;
        stroke: black;
        fill: white;
        cursor: help;
      }
      g.diagram-text:hover path.diagram-text {
        fill: #eee;
      }
    ]]></style>
  </defs>

<g transform="translate(.5 .5)">
<g>
<path d="M20 30v20m10 -20v20m-10 -10h20"></path>
</g>
<g>
<path d="M40 40h0"></path>
<path d="M176.5 40h0"></path>
<path d="M40 40a10 10 0 0 0 10 -10v0a10 10 0 0 1 10 -10"></path>
<g>
<path d="M60 20h96.5"></path>
</g>
<path d="M156.5 20a10 10 0 0 1 10 10v0a10 10 0 0 0 10 10"></path>
<path d="M40 40h20"></path>
<g class="terminal">
<path d="M60 40h0"></path>
<path d="M156.5 40h0"></path>
<rect x="60" y="29" width="96.5" height="22" rx="10" ry="10"></rect>
<text x="108.25" y="44">undefined</text>
</g>
<path d="M156.5 40h20"></path>
</g>
<g>
<path d="M176.5 40h0"></path>
<path d="M313 40h0"></path>
<path d="M176.5 40a10 10 0 0 0 10 -10v0a10 10 0 0 1 10 -10"></path>
<g>
<path d="M196.5 20h96.5"></path>
</g>
<path d="M293 20a10 10 0 0 1 10 10v0a10 10 0 0 0 10 10"></path>
<path d="M176.5 40h20"></path>
<g class="terminal">
<path d="M196.5 40h0"></path>
<path d="M293 40h0"></path>
<rect x="196.5" y="29" width="96.5" height="22" rx="10" ry="10"></rect>
<text x="244.75" y="44">undefined</text>
</g>
<path d="M293 40h20"></path>
</g>
<g>
<path d="M313 40h0"></path>
<path d="M424 40h0"></path>
<path d="M313 40h20"></path>
<g class="non-terminal">
<path d="M333 40h0"></path>
<path d="M404 40h0"></path>
<rect x="333" y="29" width="71" height="22"></rect>
<a xlink:href="#letter"><text x="368.5" y="44">Letter</text>
</a>
</g>
<path d="M404 40h20"></path>
<path d="M313 40a10 10 0 0 1 10 10v10a10 10 0 0 0 10 10"></path>
<g class="terminal">
<path d="M333 70h21.25"></path>
<path d="M382.75 70h21.25"></path>
<rect x="354.25" y="59" width="28.5" height="22" rx="10" ry="10"></rect>
<text x="368.5" y="74">&#95;</text>
</g>
<path d="M404 70a10 10 0 0 0 10 -10v-10a10 10 0 0 1 10 -10"></path>
</g>
<g>
<path d="M424 40h0"></path>
<path d="M595 40h0"></path>
<path d="M424 40a10 10 0 0 0 10 -10v0a10 10 0 0 1 10 -10"></path>
<g>
<path d="M444 20h131"></path>
</g>
<path d="M575 20a10 10 0 0 1 10 10v0a10 10 0 0 0 10 10"></path>
<path d="M424 40h20"></path>
<g>
<path d="M444 40h0"></path>
<path d="M575 40h0"></path>
<path d="M444 40h10"></path>
<g>
<path d="M454 40h0"></path>
<path d="M565 40h0"></path>
<path d="M454 40h20"></path>
<g class="non-terminal">
<path d="M474 40h4.25"></path>
<path d="M540.75 40h4.25"></path>
<rect x="478.25" y="29" width="62.5" height="22"></rect>
<a xlink:href="#digit"><text x="509.5" y="44">Digit</text>
</a>
</g>
<path d="M545 40h20"></path>
<path d="M454 40a10 10 0 0 1 10 10v10a10 10 0 0 0 10 10"></path>
<g class="non-terminal">
<path d="M474 70h0"></path>
<path d="M545 70h0"></path>
<rect x="474" y="59" width="71" height="22"></rect>
<a xlink:href="#letter"><text x="509.5" y="74">Letter</text>
</a>
</g>
<path d="M545 70a10 10 0 0 0 10 -10v-10a10 10 0 0 1 10 -10"></path>
<path d="M454 40a10 10 0 0 1 10 10v40a10 10 0 0 0 10 10"></path>
<g class="terminal">
<path d="M474 100h21.25"></path>
<path d="M523.75 100h21.25"></path>
<rect x="495.25" y="89" width="28.5" height="22" rx="10" ry="10"></rect>
<text x="509.5" y="104">&#95;</text>
</g>
<path d="M545 100a10 10 0 0 0 10 -10v-40a10 10 0 0 1 10 -10"></path>
</g>
<path d="M565 40h10"></path>
<path d="M454 40a10 10 0 0 0 -10 10v59a10 10 0 0 0 10 10"></path>
<g>
<path d="M454 119h111"></path>
</g>
<path d="M565 119a10 10 0 0 0 10 -10v-59a10 10 0 0 0 -10 -10"></path>
</g>
<path d="M575 40h20"></path>
</g>
<path d="M 595 40 h 20 m -10 -10 v 20 m 10 -20 v 20"></path>
</g>
</svg>
