<svg xmlns="http://www.w3.org/2000/svg" xmlns:xlink="http://www.w3.org/1999/xlink" class="railroad-diagram" width="148.5" height="116" viewBox="0 0 148.5 116">
  <defs>
    <style type="text/css"><![CDATA[
      path {
        stroke-width: 3;
        stroke: black;
        fill: rgba(0,0,0,0);
      }
      text {
        font: bold 14px monospace;
        text-anchor: middle;
        white-space: pre;
        fill: black;
      }
      text.diagram-text {
        font-size: 12px;
      }
      text.diagram-arrow {
        font-size: 16px;
      }
      text.label {
        text-anchor: start;
      }
      text.comment {
        font: italic 12px monospace;
      }
      rect {
        stroke-width: 3;
        stroke: black;
        fill: hsl(180,100%,90%);
      }
      rect[rx] {
        fill: hsl(120,100%,90%);
      }
      rect.group-box {
        stroke: gray;
        stroke-dasharray: 10 5;
        fill: none;
      }
      path.diagram-text {
        stroke-width: 3;
        stroke: black;
        fill: white;
        cursor: help;
      }
      g.diagram-text:hover path.diagram-text {
        fill: #eee;
      }
    ]]></style>
  </defs>

<g transform="translate(.5 .5)">
<g>
<path d="M20 21v20m10 -20v20m-10 -10h20"></path>
</g>
<g>
<path d="M40 31h0"></path>
<path d="M108.5 31h0"></path>
<path d="M40 31h20"></path>
<g class="terminal">
<path d="M60 31h0"></path>
<path d="M88.5 31h0"></path>
<rect x="60" y="20" width="28.5" height="22" rx="10" ry="10"></rect>
<text x="74.25" y="35">a</text>
</g>
<path d="M88.5 31h20"></path>
<path d="M40 31a10 10 0 0 1 10 10v7a10 10 0 0 0 10 10"></path>
<g>
<path d="M60 58h2.25"></path>
<path d="M86.25 58h2.25"></path>
<text x="74.25" y="63" class="comment">..</text>
</g>
<path d="M88.5 58a10 10 0 0 0 10 -10v-7a10 10 0 0 1 10 -10"></path>
<path d="M40 31a10 10 0 0 1 10 10v34a10 10 0 0 0 10 10"></path>
<g class="terminal">
<path d="M60 85h0"></path>
<path d="M88.5 85h0"></path>
<rect x="60" y="74" width="28.5" height="22" rx="10" ry="10"></rect>
<text x="74.25" y="89">z</text>
</g>
<path d="M88.5 85a10 10 0 0 0 10 -10v-34a10 10 0 0 1 10 -10"></path>
</g>
<path d="M 108.5 31 h 20 m -10 -10 v 20 m 10 -20 v 20"></path>
</g>
</svg>
