<svg xmlns="http://www.w3.org/2000/svg" xmlns:xlink="http://www.w3.org/1999/xlink" class="railroad-diagram" width="276" height="242" viewBox="0 0 276 242">
  <defs>
    <style type="text/css"><![CDATA[
      path {
        stroke-width: 3;
        stroke: black;
        fill: rgba(0,0,0,0);
      }
      text {
        font: bold 14px monospace;
        text-anchor: middle;
        white-space: pre;
        fill: black;
      }
      text.diagram-text {
        font-size: 12px;
      }
      text.diagram-arrow {
        font-size: 16px;
      }
      text.label {
        text-anchor: start;
      }
      text.comment {
        font: italic 12px monospace;
      }
      rect {
        stroke-width: 3;
        stroke: black;
        fill: hsl(180,100%,90%);
      }
      rect[rx] {
        fill: hsl(120,100%,90%);
      }
      rect.group-box {
        stroke: gray;
        stroke-dasharray: 10 5;
        fill: none;
      }
      path.diagram-text {
        stroke-width: 3;
        stroke: black;
        fill: white;
        cursor: help;
      }
      g.diagram-text:hover path.diagram-text {
        fill: #eee;
      }
    ]]></style>
  </defs>

<g transform="translate(.5 .5)">
<g>
<path d="M20 21v20m10 -20v20m-10 -10h20"></path>
</g>
<g>
<path d="M40 31h0"></path>
<path d="M236 31h0"></path>
<path d="M40 31h20"></path>
<g class="non-terminal">
<path d="M60 31h12.75"></path>
<path d="M203.25 31h12.75"></path>
<rect x="72.75" y="20" width="130.5" height="22"></rect>
<a xlink:href="#stringliteral"><text x="138" y="35">StringLiteral</text>
</a>
</g>
<path d="M216 31h20"></path>
<path d="M40 31a10 10 0 0 1 10 10v10a10 10 0 0 0 10 10"></path>
<g class="non-terminal">
<path d="M60 61h8.5"></path>
<path d="M207.5 61h8.5"></path>
<rect x="68.5" y="50" width="139" height="22"></rect>
<a xlink:href="#integerliteral"><text x="138" y="65">IntegerLiteral</text>
</a>
</g>
<path d="M216 61a10 10 0 0 0 10 -10v-10a10 10 0 0 1 10 -10"></path>
<path d="M40 31a10 10 0 0 1 10 10v40a10 10 0 0 0 10 10"></path>
<g class="non-terminal">
<path d="M60 91h21.25"></path>
<path d="M194.75 91h21.25"></path>
<rect x="81.25" y="80" width="113.5" height="22"></rect>
<a xlink:href="#realliteral"><text x="138" y="95">RealLiteral</text>
</a>
</g>
<path d="M216 91a10 10 0 0 0 10 -10v-40a10 10 0 0 1 10 -10"></path>
<path d="M40 31a10 10 0 0 1 10 10v70a10 10 0 0 0 10 10"></path>
<g class="non-terminal">
<path d="M60 121h8.5"></path>
<path d="M207.5 121h8.5"></path>
<rect x="68.5" y="110" width="139" height="22"></rect>
<a xlink:href="#booleanliteral"><text x="138" y="125">BooleanLiteral</text>
</a>
</g>
<path d="M216 121a10 10 0 0 0 10 -10v-70a10 10 0 0 1 10 -10"></path>
<path d="M40 31a10 10 0 0 1 10 10v100a10 10 0 0 0 10 10"></path>
<g class="non-terminal">
<path d="M60 151h21.25"></path>
<path d="M194.75 151h21.25"></path>
<rect x="81.25" y="140" width="113.5" height="22"></rect>
<a xlink:href="#dateliteral"><text x="138" y="155">DateLiteral</text>
</a>
</g>
<path d="M216 151a10 10 0 0 0 10 -10v-100a10 10 0 0 1 10 -10"></path>
<path d="M40 31a10 10 0 0 1 10 10v130a10 10 0 0 0 10 10"></path>
<g class="non-terminal">
<path d="M60 181h46.75"></path>
<path d="M169.25 181h46.75"></path>
<rect x="106.75" y="170" width="62.5" height="22"></rect>
<a xlink:href="#xlate"><text x="138" y="185">Xlate</text>
</a>
</g>
<path d="M216 181a10 10 0 0 0 10 -10v-130a10 10 0 0 1 10 -10"></path>
<path d="M40 31a10 10 0 0 1 10 10v160a10 10 0 0 0 10 10"></path>
<g class="non-terminal">
<path d="M60 211h0"></path>
<path d="M216 211h0"></path>
<rect x="60" y="200" width="156" height="22"></rect>
<a xlink:href="#undefinedliteral"><text x="138" y="215">UndefinedLiteral</text>
</a>
</g>
<path d="M216 211a10 10 0 0 0 10 -10v-160a10 10 0 0 1 10 -10"></path>
</g>
<path d="M 236 31 h 20 m -10 -10 v 20 m 10 -20 v 20"></path>
</g>
</svg>
