<svg xmlns="http://www.w3.org/2000/svg" xmlns:xlink="http://www.w3.org/1999/xlink" class="railroad-diagram" width="418.5" height="161" viewBox="0 0 418.5 161">
  <defs>
    <style type="text/css"><![CDATA[
      path {
        stroke-width: 3;
        stroke: black;
        fill: rgba(0,0,0,0);
      }
      text {
        font: bold 14px monospace;
        text-anchor: middle;
        white-space: pre;
        fill: black;
      }
      text.diagram-text {
        font-size: 12px;
      }
      text.diagram-arrow {
        font-size: 16px;
      }
      text.label {
        text-anchor: start;
      }
      text.comment {
        font: italic 12px monospace;
      }
      rect {
        stroke-width: 3;
        stroke: black;
        fill: hsl(180,100%,90%);
      }
      rect[rx] {
        fill: hsl(120,100%,90%);
      }
      rect.group-box {
        stroke: gray;
        stroke-dasharray: 10 5;
        fill: none;
      }
      path.diagram-text {
        stroke-width: 3;
        stroke: black;
        fill: white;
        cursor: help;
      }
      g.diagram-text:hover path.diagram-text {
        fill: #eee;
      }
    ]]></style>
  </defs>

<g transform="translate(.5 .5)">
<g>
<path d="M20 30v20m10 -20v20m-10 -10h20"></path>
</g>
<path d="M40 40h10"></path>
<g class="non-terminal">
<path d="M50 40h0"></path>
<path d="M155 40h0"></path>
<rect x="50" y="29" width="105" height="22"></rect>
<a xlink:href="#identifier"><text x="102.5" y="44">Identifier</text>
</a>
</g>
<path d="M155 40h10"></path>
<g>
<path d="M165 40h0"></path>
<path d="M378.5 40h0"></path>
<path d="M165 40a10 10 0 0 0 10 -10v0a10 10 0 0 1 10 -10"></path>
<g>
<path d="M185 20h173.5"></path>
</g>
<path d="M358.5 20a10 10 0 0 1 10 10v0a10 10 0 0 0 10 10"></path>
<path d="M165 40h20"></path>
<g>
<path d="M185 40h0"></path>
<path d="M358.5 40h0"></path>
<path d="M185 40h10"></path>
<g>
<path d="M195 40h0"></path>
<path d="M348.5 40h0"></path>
<path d="M195 40h20"></path>
<g class="non-terminal">
<path d="M215 40h4.25"></path>
<path d="M324.25 40h4.25"></path>
<rect x="219.25" y="29" width="105" height="22"></rect>
<a xlink:href="#identifier"><text x="271.75" y="44">Identifier</text>
</a>
</g>
<path d="M328.5 40h20"></path>
<path d="M195 40a10 10 0 0 1 10 10v10a10 10 0 0 0 10 10"></path>
<g class="non-terminal">
<path d="M215 70h8.5"></path>
<path d="M320 70h8.5"></path>
<rect x="223.5" y="59" width="96.5" height="22"></rect>
<a xlink:href="#hashquote"><text x="271.75" y="74">HashQuote</text>
</a>
</g>
<path d="M328.5 70a10 10 0 0 0 10 -10v-10a10 10 0 0 1 10 -10"></path>
<path d="M195 40a10 10 0 0 1 10 10v40a10 10 0 0 0 10 10"></path>
<g class="non-terminal">
<path d="M215 100h0"></path>
<path d="M328.5 100h0"></path>
<rect x="215" y="89" width="113.5" height="22"></rect>
<a xlink:href="#legacyalias"><text x="271.75" y="104">LegacyAlias</text>
</a>
</g>
<path d="M328.5 100a10 10 0 0 0 10 -10v-40a10 10 0 0 1 10 -10"></path>
</g>
<path d="M348.5 40h10"></path>
<path d="M195 40a10 10 0 0 0 -10 10v70a10 10 0 0 0 10 10"></path>
<g class="terminal">
<path d="M195 130h58.25"></path>
<path d="M290.25 130h58.25"></path>
<rect x="253.25" y="119" width="37" height="22" rx="10" ry="10"></rect>
<text x="271.75" y="134">::</text>
</g>
<path d="M348.5 130a10 10 0 0 0 10 -10v-70a10 10 0 0 0 -10 -10"></path>
</g>
<path d="M358.5 40h20"></path>
</g>
<path d="M 378.5 40 h 20 m -10 -10 v 20 m 10 -20 v 20"></path>
</g>
</svg>
