<svg xmlns="http://www.w3.org/2000/svg" xmlns:xlink="http://www.w3.org/1999/xlink" class="railroad-diagram" width="927.5" height="210" viewBox="0 0 927.5 210">
  <defs>
    <style type="text/css"><![CDATA[
      path {
        stroke-width: 3;
        stroke: black;
        fill: rgba(0,0,0,0);
      }
      text {
        font: bold 14px monospace;
        text-anchor: middle;
        white-space: pre;
        fill: black;
      }
      text.diagram-text {
        font-size: 12px;
      }
      text.diagram-arrow {
        font-size: 16px;
      }
      text.label {
        text-anchor: start;
      }
      text.comment {
        font: italic 12px monospace;
      }
      rect {
        stroke-width: 3;
        stroke: black;
        fill: hsl(180,100%,90%);
      }
      rect[rx] {
        fill: hsl(120,100%,90%);
      }
      rect.group-box {
        stroke: gray;
        stroke-dasharray: 10 5;
        fill: none;
      }
      path.diagram-text {
        stroke-width: 3;
        stroke: black;
        fill: white;
        cursor: help;
      }
      g.diagram-text:hover path.diagram-text {
        fill: #eee;
      }
    ]]></style>
  </defs>

<g transform="translate(.5 .5)">
<g>
<path d="M20 21v20m10 -20v20m-10 -10h20"></path>
</g>
<path d="M40 31h10"></path>
<g>
<path d="M50 31h0"></path>
<path d="M50 31h10"></path>
<g class="non-terminal">
<path d="M60 31h18.5"></path>
<path d="M166.5 31h18.5"></path>
<rect x="78.5" y="20" width="88" height="22"></rect>
<a xlink:href="#modifier"><text x="122.5" y="35">Modifier</text>
</a>
</g>
<path d="M185 31a10 10 0 0 1 10 10v0a10 10 0 0 1 -10 10h-125a10 10 0 0 0 -10 10v0a10 10 0 0 0 10 10"></path>
<g class="terminal">
<path d="M60 71h27"></path>
<path d="M158 71h27"></path>
<rect x="87" y="60" width="71" height="22" rx="10" ry="10"></rect>
<text x="122.5" y="75">object</text>
</g>
<path d="M185 71a10 10 0 0 1 10 10v0a10 10 0 0 1 -10 10h-125a10 10 0 0 0 -10 10v0a10 10 0 0 0 10 10"></path>
<g class="non-terminal">
<path d="M60 111h10"></path>
<path d="M175 111h10"></path>
<rect x="70" y="100" width="105" height="22"></rect>
<a xlink:href="#identifier"><text x="122.5" y="115">Identifier</text>
</a>
</g>
<path d="M185 111h10"></path>
<path d="M195 111h0"></path>
</g>
<path d="M195 111h10"></path>
<g>
<path d="M205 111h0"></path>
<path d="M458 111h0"></path>
<path d="M205 111a10 10 0 0 0 10 -10v0a10 10 0 0 1 10 -10"></path>
<g>
<path d="M225 91h213"></path>
</g>
<path d="M438 91a10 10 0 0 1 10 10v0a10 10 0 0 0 10 10"></path>
<path d="M205 111h20"></path>
<g>
<path d="M225 111h0"></path>
<path d="M438 111h0"></path>
<g class="terminal">
<path d="M225 111h0"></path>
<path d="M313 111h0"></path>
<rect x="225" y="100" width="88" height="22" rx="10" ry="10"></rect>
<text x="269" y="115">inherits</text>
</g>
<path d="M313 111h10"></path>
<path d="M323 111h10"></path>
<g class="non-terminal">
<path d="M333 111h0"></path>
<path d="M438 111h0"></path>
<rect x="333" y="100" width="105" height="22"></rect>
<a xlink:href="#objectname"><text x="385.5" y="115">ObjectName</text>
</a>
</g>
</g>
<path d="M438 111h20"></path>
</g>
<path d="M458 111h10"></path>
<g class="terminal">
<path d="M468 111h0"></path>
<path d="M530.5 111h0"></path>
<rect x="468" y="100" width="62.5" height="22" rx="10" ry="10"></rect>
<text x="499.25" y="115">\r?\n</text>
</g>
<path d="M530.5 111h10"></path>
<g>
<path d="M540.5 111h0"></path>
<path d="M822 111h0"></path>
<path d="M540.5 111a10 10 0 0 0 10 -10v0a10 10 0 0 1 10 -10"></path>
<g>
<path d="M560.5 91h241.5"></path>
</g>
<path d="M802 91a10 10 0 0 1 10 10v0a10 10 0 0 0 10 10"></path>
<path d="M540.5 111h20"></path>
<g>
<path d="M560.5 111h0"></path>
<path d="M802 111h0"></path>
<path d="M560.5 111h10"></path>
<g>
<path d="M570.5 111h0"></path>
<path d="M792 111h0"></path>
<path d="M570.5 111h20"></path>
<g class="non-terminal">
<path d="M590.5 111h4.25"></path>
<path d="M767.75 111h4.25"></path>
<rect x="594.75" y="100" width="173" height="22"></rect>
<a xlink:href="#featuredeclaration"><text x="681.25" y="115">FeatureDeclaration</text>
</a>
</g>
<path d="M772 111h20"></path>
<path d="M570.5 111a10 10 0 0 1 10 10v10a10 10 0 0 0 10 10"></path>
<g class="non-terminal">
<path d="M590.5 141h0"></path>
<path d="M772 141h0"></path>
<rect x="590.5" y="130" width="181.5" height="22"></rect>
<a xlink:href="#functiondeclaration"><text x="681.25" y="145">FunctionDeclaration</text>
</a>
</g>
<path d="M772 141a10 10 0 0 0 10 -10v-10a10 10 0 0 1 10 -10"></path>
<path d="M570.5 111a10 10 0 0 1 10 10v40a10 10 0 0 0 10 10"></path>
<g class="non-terminal">
<path d="M590.5 171h8.5"></path>
<path d="M763.5 171h8.5"></path>
<rect x="599" y="160" width="164.5" height="22"></rect>
<a xlink:href="#scriptdeclaration"><text x="681.25" y="175">ScriptDeclaration</text>
</a>
</g>
<path d="M772 171a10 10 0 0 0 10 -10v-40a10 10 0 0 1 10 -10"></path>
</g>
<path d="M792 111h10"></path>
<path d="M570.5 111a10 10 0 0 0 -10 10v59a10 10 0 0 0 10 10"></path>
<g>
<path d="M570.5 190h221.5"></path>
</g>
<path d="M792 190a10 10 0 0 0 10 -10v-59a10 10 0 0 0 -10 -10"></path>
</g>
<path d="M802 111h20"></path>
</g>
<path d="M822 111h10"></path>
<g class="terminal">
<path d="M832 111h0"></path>
<path d="M877.5 111h0"></path>
<rect x="832" y="100" width="45.5" height="22" rx="10" ry="10"></rect>
<text x="854.75" y="115">end</text>
</g>
<path d="M877.5 111h10"></path>
<path d="M 887.5 111 h 20 m -10 -10 v 20 m 10 -20 v 20"></path>
</g>
</svg>
