<svg xmlns="http://www.w3.org/2000/svg" xmlns:xlink="http://www.w3.org/1999/xlink" class="railroad-diagram" width="418.5" height="62" viewBox="0 0 418.5 62">
  <defs>
    <style type="text/css"><![CDATA[
      path {
        stroke-width: 3;
        stroke: black;
        fill: rgba(0,0,0,0);
      }
      text {
        font: bold 14px monospace;
        text-anchor: middle;
        white-space: pre;
        fill: black;
      }
      text.diagram-text {
        font-size: 12px;
      }
      text.diagram-arrow {
        font-size: 16px;
      }
      text.label {
        text-anchor: start;
      }
      text.comment {
        font: italic 12px monospace;
      }
      rect {
        stroke-width: 3;
        stroke: black;
        fill: hsl(180,100%,90%);
      }
      rect[rx] {
        fill: hsl(120,100%,90%);
      }
      rect.group-box {
        stroke: gray;
        stroke-dasharray: 10 5;
        fill: none;
      }
      path.diagram-text {
        stroke-width: 3;
        stroke: black;
        fill: white;
        cursor: help;
      }
      g.diagram-text:hover path.diagram-text {
        fill: #eee;
      }
    ]]></style>
  </defs>

<g transform="translate(.5 .5)">
<g>
<path d="M20 21v20m10 -20v20m-10 -10h20"></path>
</g>
<path d="M40 31h10"></path>
<g class="terminal">
<path d="M50 31h0"></path>
<path d="M95.5 31h0"></path>
<rect x="50" y="20" width="45.5" height="22" rx="10" ry="10"></rect>
<text x="72.75" y="35">set</text>
</g>
<path d="M95.5 31h10"></path>
<path d="M105.5 31h10"></path>
<g class="non-terminal">
<path d="M115.5 31h0"></path>
<path d="M220.5 31h0"></path>
<rect x="115.5" y="20" width="105" height="22"></rect>
<a xlink:href="#identifier"><text x="168" y="35">Identifier</text>
</a>
</g>
<path d="M220.5 31h10"></path>
<path d="M230.5 31h10"></path>
<g class="terminal">
<path d="M240.5 31h0"></path>
<path d="M269 31h0"></path>
<rect x="240.5" y="20" width="28.5" height="22" rx="10" ry="10"></rect>
<text x="254.75" y="35">=</text>
</g>
<path d="M269 31h10"></path>
<path d="M279 31h10"></path>
<g class="non-terminal">
<path d="M289 31h0"></path>
<path d="M368.5 31h0"></path>
<rect x="289" y="20" width="79.5" height="22"></rect>
<a xlink:href="#literal"><text x="328.75" y="35">Literal</text>
</a>
</g>
<path d="M368.5 31h10"></path>
<path d="M 378.5 31 h 20 m -10 -10 v 20 m 10 -20 v 20"></path>
</g>
</svg>
