<svg xmlns="http://www.w3.org/2000/svg" xmlns:xlink="http://www.w3.org/1999/xlink" class="railroad-diagram" width="571.5" height="62" viewBox="0 0 571.5 62">
  <defs>
    <style type="text/css"><![CDATA[
      path {
        stroke-width: 3;
        stroke: black;
        fill: rgba(0,0,0,0);
      }
      text {
        font: bold 14px monospace;
        text-anchor: middle;
        white-space: pre;
        fill: black;
      }
      text.diagram-text {
        font-size: 12px;
      }
      text.diagram-arrow {
        font-size: 16px;
      }
      text.label {
        text-anchor: start;
      }
      text.comment {
        font: italic 12px monospace;
      }
      rect {
        stroke-width: 3;
        stroke: black;
        fill: hsl(180,100%,90%);
      }
      rect[rx] {
        fill: hsl(120,100%,90%);
      }
      rect.group-box {
        stroke: gray;
        stroke-dasharray: 10 5;
        fill: none;
      }
      path.diagram-text {
        stroke-width: 3;
        stroke: black;
        fill: white;
        cursor: help;
      }
      g.diagram-text:hover path.diagram-text {
        fill: #eee;
      }
    ]]></style>
  </defs>

<g transform="translate(.5 .5)">
<g>
<path d="M20 21v20m10 -20v20m-10 -10h20"></path>
</g>
<path d="M40 31h10"></path>
<g class="terminal">
<path d="M50 31h0"></path>
<path d="M129.5 31h0"></path>
<rect x="50" y="20" width="79.5" height="22" rx="10" ry="10"></rect>
<text x="89.75" y="35">package</text>
</g>
<path d="M129.5 31h10"></path>
<path d="M139.5 31h10"></path>
<g class="non-terminal">
<path d="M149.5 31h0"></path>
<path d="M254.5 31h0"></path>
<rect x="149.5" y="20" width="105" height="22"></rect>
<a xlink:href="#objectname"><text x="202" y="35">ObjectName</text>
</a>
</g>
<path d="M254.5 31h10"></path>
<path d="M264.5 31h10"></path>
<g class="terminal">
<path d="M274.5 31h0"></path>
<path d="M337 31h0"></path>
<rect x="274.5" y="20" width="62.5" height="22" rx="10" ry="10"></rect>
<text x="305.75" y="35">\r?\n</text>
</g>
<path d="M337 31h10"></path>
<path d="M347 31h10"></path>
<g class="non-terminal">
<path d="M357 31h0"></path>
<path d="M521.5 31h0"></path>
<rect x="357" y="20" width="164.5" height="22"></rect>
<a xlink:href="#objectdeclaration"><text x="439.25" y="35">ObjectDeclaration</text>
</a>
</g>
<path d="M521.5 31h10"></path>
<path d="M 531.5 31 h 20 m -10 -10 v 20 m 10 -20 v 20"></path>
</g>
</svg>
