<svg xmlns="http://www.w3.org/2000/svg" xmlns:xlink="http://www.w3.org/1999/xlink" class="railroad-diagram" width="380.5" height="150" viewBox="0 0 380.5 150">
  <defs>
    <style type="text/css"><![CDATA[
      path {
        stroke-width: 3;
        stroke: black;
        fill: rgba(0,0,0,0);
      }
      text {
        font: bold 14px monospace;
        text-anchor: middle;
        white-space: pre;
        fill: black;
      }
      text.diagram-text {
        font-size: 12px;
      }
      text.diagram-arrow {
        font-size: 16px;
      }
      text.label {
        text-anchor: start;
      }
      text.comment {
        font: italic 12px monospace;
      }
      rect {
        stroke-width: 3;
        stroke: black;
        fill: hsl(180,100%,90%);
      }
      rect[rx] {
        fill: hsl(120,100%,90%);
      }
      rect.group-box {
        stroke: gray;
        stroke-dasharray: 10 5;
        fill: none;
      }
      path.diagram-text {
        stroke-width: 3;
        stroke: black;
        fill: white;
        cursor: help;
      }
      g.diagram-text:hover path.diagram-text {
        fill: #eee;
      }
    ]]></style>
  </defs>

<g transform="translate(.5 .5)">
<g>
<path d="M20 20v20m10 -20v20m-10 -10h20"></path>
</g>
<g>
<path d="M40 30h0"></path>
<path d="M340.5 30h0"></path>
<path d="M40 30h20"></path>
<g>
<path d="M60 30h260.5"></path>
</g>
<path d="M320.5 30h20"></path>
<path d="M40 30a10 10 0 0 1 10 10v0a10 10 0 0 0 10 10"></path>
<g class="terminal">
<path d="M60 50h107.5"></path>
<path d="M213 50h107.5"></path>
<rect x="167.5" y="39" width="45.5" height="22" rx="10" ry="10"></rect>
<text x="190.25" y="54">...</text>
</g>
<path d="M320.5 50a10 10 0 0 0 10 -10v0a10 10 0 0 1 10 -10"></path>
<path d="M40 30a10 10 0 0 1 10 10v39a10 10 0 0 0 10 10"></path>
<g>
<path d="M60 89h0"></path>
<path d="M320.5 89h0"></path>
<g>
<path d="M60 89h0"></path>
<path d="M176.5 89h0"></path>
<path d="M60 89h10"></path>
<g class="non-terminal">
<path d="M70 89h0"></path>
<path d="M166.5 89h0"></path>
<rect x="70" y="78" width="96.5" height="22"></rect>
<a xlink:href="#parameter"><text x="118.25" y="93">Parameter</text>
</a>
</g>
<path d="M166.5 89h10"></path>
<path d="M70 89a10 10 0 0 0 -10 10v10a10 10 0 0 0 10 10"></path>
<g class="terminal">
<path d="M70 119h34"></path>
<path d="M132.5 119h34"></path>
<rect x="104" y="108" width="28.5" height="22" rx="10" ry="10"></rect>
<text x="118.25" y="123">,</text>
</g>
<path d="M166.5 119a10 10 0 0 0 10 -10v-10a10 10 0 0 0 -10 -10"></path>
</g>
<path d="M176.5 89h10"></path>
<g>
<path d="M186.5 89h0"></path>
<path d="M320.5 89h0"></path>
<path d="M186.5 89a10 10 0 0 0 10 -10v0a10 10 0 0 1 10 -10"></path>
<g>
<path d="M206.5 69h94"></path>
</g>
<path d="M300.5 69a10 10 0 0 1 10 10v0a10 10 0 0 0 10 10"></path>
<path d="M186.5 89h20"></path>
<g>
<path d="M206.5 89h0"></path>
<path d="M300.5 89h0"></path>
<g class="terminal">
<path d="M206.5 89h0"></path>
<path d="M235 89h0"></path>
<rect x="206.5" y="78" width="28.5" height="22" rx="10" ry="10"></rect>
<text x="220.75" y="93">,</text>
</g>
<path d="M235 89h10"></path>
<path d="M245 89h10"></path>
<g class="terminal">
<path d="M255 89h0"></path>
<path d="M300.5 89h0"></path>
<rect x="255" y="78" width="45.5" height="22" rx="10" ry="10"></rect>
<text x="277.75" y="93">...</text>
</g>
</g>
<path d="M300.5 89h20"></path>
</g>
</g>
<path d="M320.5 89a10 10 0 0 0 10 -10v-39a10 10 0 0 1 10 -10"></path>
</g>
<path d="M 340.5 30 h 20 m -10 -10 v 20 m 10 -20 v 20"></path>
</g>
</svg>
