<svg xmlns="http://www.w3.org/2000/svg" xmlns:xlink="http://www.w3.org/1999/xlink" class="railroad-diagram" width="660" height="80" viewBox="0 0 660 80">
  <defs>
    <style type="text/css"><![CDATA[
      path {
        stroke-width: 3;
        stroke: black;
        fill: rgba(0,0,0,0);
      }
      text {
        font: bold 14px monospace;
        text-anchor: middle;
        white-space: pre;
        fill: black;
      }
      text.diagram-text {
        font-size: 12px;
      }
      text.diagram-arrow {
        font-size: 16px;
      }
      text.label {
        text-anchor: start;
      }
      text.comment {
        font: italic 12px monospace;
      }
      rect {
        stroke-width: 3;
        stroke: black;
        fill: hsl(180,100%,90%);
      }
      rect[rx] {
        fill: hsl(120,100%,90%);
      }
      rect.group-box {
        stroke: gray;
        stroke-dasharray: 10 5;
        fill: none;
      }
      path.diagram-text {
        stroke-width: 3;
        stroke: black;
        fill: white;
        cursor: help;
      }
      g.diagram-text:hover path.diagram-text {
        fill: #eee;
      }
    ]]></style>
  </defs>

<g transform="translate(.5 .5)">
<g>
<path d="M20 30v20m10 -20v20m-10 -10h20"></path>
</g>
<path d="M40 40h10"></path>
<g class="terminal">
<path d="M50 40h0"></path>
<path d="M121 40h0"></path>
<rect x="50" y="29" width="71" height="22" rx="10" ry="10"></rect>
<text x="85.5" y="44">repeat</text>
</g>
<path d="M121 40h10"></path>
<path d="M131 40h10"></path>
<g class="terminal">
<path d="M141 40h0"></path>
<path d="M246 40h0"></path>
<rect x="141" y="29" width="105" height="22" rx="10" ry="10"></rect>
<text x="193.5" y="44">\r?\n or ;</text>
</g>
<path d="M246 40h10"></path>
<g>
<path d="M256 40h0"></path>
<path d="M412.5 40h0"></path>
<path d="M256 40a10 10 0 0 0 10 -10v0a10 10 0 0 1 10 -10"></path>
<g>
<path d="M276 20h116.5"></path>
</g>
<path d="M392.5 20a10 10 0 0 1 10 10v0a10 10 0 0 0 10 10"></path>
<path d="M256 40h20"></path>
<g>
<path d="M276 40h0"></path>
<path d="M392.5 40h0"></path>
<path d="M276 40h10"></path>
<g class="non-terminal">
<path d="M286 40h0"></path>
<path d="M382.5 40h0"></path>
<rect x="286" y="29" width="96.5" height="22"></rect>
<a xlink:href="#statement"><text x="334.25" y="44">Statement</text>
</a>
</g>
<path d="M382.5 40h10"></path>
<path d="M286 40a10 10 0 0 0 -10 10v0a10 10 0 0 0 10 10"></path>
<g>
<path d="M286 60h96.5"></path>
</g>
<path d="M382.5 60a10 10 0 0 0 10 -10v0a10 10 0 0 0 -10 -10"></path>
</g>
<path d="M392.5 40h20"></path>
</g>
<path d="M412.5 40h10"></path>
<g class="terminal">
<path d="M422.5 40h0"></path>
<path d="M485 40h0"></path>
<rect x="422.5" y="29" width="62.5" height="22" rx="10" ry="10"></rect>
<text x="453.75" y="44">until</text>
</g>
<path d="M485 40h10"></path>
<path d="M495 40h10"></path>
<g class="non-terminal">
<path d="M505 40h0"></path>
<path d="M610 40h0"></path>
<rect x="505" y="29" width="105" height="22"></rect>
<a xlink:href="#expression"><text x="557.5" y="44">Expression</text>
</a>
</g>
<path d="M610 40h10"></path>
<path d="M 620 40 h 20 m -10 -10 v 20 m 10 -20 v 20"></path>
</g>
</svg>
