<svg xmlns="http://www.w3.org/2000/svg" xmlns:xlink="http://www.w3.org/1999/xlink" class="railroad-diagram" width="316" height="71" viewBox="0 0 316 71">
  <defs>
    <style type="text/css"><![CDATA[
      path {
        stroke-width: 3;
        stroke: black;
        fill: rgba(0,0,0,0);
      }
      text {
        font: bold 14px monospace;
        text-anchor: middle;
        white-space: pre;
        fill: black;
      }
      text.diagram-text {
        font-size: 12px;
      }
      text.diagram-arrow {
        font-size: 16px;
      }
      text.label {
        text-anchor: start;
      }
      text.comment {
        font: italic 12px monospace;
      }
      rect {
        stroke-width: 3;
        stroke: black;
        fill: hsl(180,100%,90%);
      }
      rect[rx] {
        fill: hsl(120,100%,90%);
      }
      rect.group-box {
        stroke: gray;
        stroke-dasharray: 10 5;
        fill: none;
      }
      path.diagram-text {
        stroke-width: 3;
        stroke: black;
        fill: white;
        cursor: help;
      }
      g.diagram-text:hover path.diagram-text {
        fill: #eee;
      }
    ]]></style>
  </defs>

<g transform="translate(.5 .5)">
<g>
<path d="M20 30v20m10 -20v20m-10 -10h20"></path>
</g>
<path d="M40 40h10"></path>
<g class="terminal">
<path d="M50 40h0"></path>
<path d="M121 40h0"></path>
<rect x="50" y="29" width="71" height="22" rx="10" ry="10"></rect>
<text x="85.5" y="44">return</text>
</g>
<path d="M121 40h10"></path>
<g>
<path d="M131 40h0"></path>
<path d="M276 40h0"></path>
<path d="M131 40a10 10 0 0 0 10 -10v0a10 10 0 0 1 10 -10"></path>
<g>
<path d="M151 20h105"></path>
</g>
<path d="M256 20a10 10 0 0 1 10 10v0a10 10 0 0 0 10 10"></path>
<path d="M131 40h20"></path>
<g class="non-terminal">
<path d="M151 40h0"></path>
<path d="M256 40h0"></path>
<rect x="151" y="29" width="105" height="22"></rect>
<a xlink:href="#expression"><text x="203.5" y="44">Expression</text>
</a>
</g>
<path d="M256 40h20"></path>
</g>
<path d="M 276 40 h 20 m -10 -10 v 20 m 10 -20 v 20"></path>
</g>
</svg>
