<svg xmlns="http://www.w3.org/2000/svg" xmlns:xlink="http://www.w3.org/1999/xlink" class="railroad-diagram" width="927.5" height="160" viewBox="0 0 927.5 160">
  <defs>
    <style type="text/css"><![CDATA[
      path {
        stroke-width: 3;
        stroke: black;
        fill: rgba(0,0,0,0);
      }
      text {
        font: bold 14px monospace;
        text-anchor: middle;
        white-space: pre;
        fill: black;
      }
      text.diagram-text {
        font-size: 12px;
      }
      text.diagram-arrow {
        font-size: 16px;
      }
      text.label {
        text-anchor: start;
      }
      text.comment {
        font: italic 12px monospace;
      }
      rect {
        stroke-width: 3;
        stroke: black;
        fill: hsl(180,100%,90%);
      }
      rect[rx] {
        fill: hsl(120,100%,90%);
      }
      rect.group-box {
        stroke: gray;
        stroke-dasharray: 10 5;
        fill: none;
      }
      path.diagram-text {
        stroke-width: 3;
        stroke: black;
        fill: white;
        cursor: help;
      }
      g.diagram-text:hover path.diagram-text {
        fill: #eee;
      }
    ]]></style>
  </defs>

<g transform="translate(.5 .5)">
<g>
<path d="M20 30v20m10 -20v20m-10 -10h20"></path>
</g>
<path d="M40 40h10"></path>
<g>
<path d="M50 40h0"></path>
<path d="M50 40h10"></path>
<g>
<path d="M60 40h0"></path>
<path d="M188 40h0"></path>
<path d="M60 40a10 10 0 0 0 10 -10v0a10 10 0 0 1 10 -10"></path>
<g>
<path d="M80 20h88"></path>
</g>
<path d="M168 20a10 10 0 0 1 10 10v0a10 10 0 0 0 10 10"></path>
<path d="M60 40h20"></path>
<g class="non-terminal">
<path d="M80 40h0"></path>
<path d="M168 40h0"></path>
<rect x="80" y="29" width="88" height="22"></rect>
<a xlink:href="#modifier"><text x="124" y="44">Modifier</text>
</a>
</g>
<path d="M168 40h20"></path>
</g>
<path d="M188 40a10 10 0 0 1 10 10v0a10 10 0 0 1 -10 10h-128a10 10 0 0 0 -10 10v0a10 10 0 0 0 10 10"></path>
<g class="terminal">
<path d="M60 80h28.5"></path>
<path d="M159.5 80h28.5"></path>
<rect x="88.5" y="69" width="71" height="22" rx="10" ry="10"></rect>
<text x="124" y="84">script</text>
</g>
<path d="M188 80a10 10 0 0 1 10 10v0a10 10 0 0 1 -10 10h-128a10 10 0 0 0 -10 10v0a10 10 0 0 0 10 10"></path>
<g class="non-terminal">
<path d="M60 120h11.5"></path>
<path d="M176.5 120h11.5"></path>
<rect x="71.5" y="109" width="105" height="22"></rect>
<a xlink:href="#identifier"><text x="124" y="124">Identifier</text>
</a>
</g>
<path d="M188 120h10"></path>
<path d="M198 120h0"></path>
</g>
<path d="M198 120h10"></path>
<path d="M208 120h10"></path>
<g class="terminal">
<path d="M218 120h0"></path>
<path d="M280.5 120h0"></path>
<rect x="218" y="109" width="62.5" height="22" rx="10" ry="10"></rect>
<text x="249.25" y="124">\r?\n</text>
</g>
<path d="M280.5 120h10"></path>
<g>
<path d="M290.5 120h0"></path>
<path d="M447 120h0"></path>
<path d="M290.5 120a10 10 0 0 0 10 -10v0a10 10 0 0 1 10 -10"></path>
<g>
<path d="M310.5 100h116.5"></path>
</g>
<path d="M427 100a10 10 0 0 1 10 10v0a10 10 0 0 0 10 10"></path>
<path d="M290.5 120h20"></path>
<g>
<path d="M310.5 120h0"></path>
<path d="M427 120h0"></path>
<path d="M310.5 120h10"></path>
<g class="non-terminal">
<path d="M320.5 120h0"></path>
<path d="M417 120h0"></path>
<rect x="320.5" y="109" width="96.5" height="22"></rect>
<a xlink:href="#statement"><text x="368.75" y="124">Statement</text>
</a>
</g>
<path d="M417 120h10"></path>
<path d="M320.5 120a10 10 0 0 0 -10 10v0a10 10 0 0 0 10 10"></path>
<g>
<path d="M320.5 140h96.5"></path>
</g>
<path d="M417 140a10 10 0 0 0 10 -10v0a10 10 0 0 0 -10 -10"></path>
</g>
<path d="M427 120h20"></path>
</g>
<g>
<path d="M447 120h0"></path>
<path d="M688.5 120h0"></path>
<path d="M447 120a10 10 0 0 0 10 -10v0a10 10 0 0 1 10 -10"></path>
<g>
<path d="M467 100h201.5"></path>
</g>
<path d="M668.5 100a10 10 0 0 1 10 10v0a10 10 0 0 0 10 10"></path>
<path d="M447 120h20"></path>
<g>
<path d="M467 120h0"></path>
<path d="M668.5 120h0"></path>
<path d="M467 120h10"></path>
<g class="non-terminal">
<path d="M477 120h0"></path>
<path d="M658.5 120h0"></path>
<rect x="477" y="109" width="181.5" height="22"></rect>
<a xlink:href="#functiondeclaration"><text x="567.75" y="124">FunctionDeclaration</text>
</a>
</g>
<path d="M658.5 120h10"></path>
<path d="M477 120a10 10 0 0 0 -10 10v0a10 10 0 0 0 10 10"></path>
<g>
<path d="M477 140h181.5"></path>
</g>
<path d="M658.5 140a10 10 0 0 0 10 -10v0a10 10 0 0 0 -10 -10"></path>
</g>
<path d="M668.5 120h20"></path>
</g>
<path d="M688.5 120h10"></path>
<g class="terminal">
<path d="M698.5 120h0"></path>
<path d="M761 120h0"></path>
<rect x="698.5" y="109" width="62.5" height="22" rx="10" ry="10"></rect>
<text x="729.75" y="124">\r?\n</text>
</g>
<path d="M761 120h10"></path>
<path d="M771 120h10"></path>
<g class="terminal">
<path d="M781 120h0"></path>
<path d="M877.5 120h0"></path>
<rect x="781" y="109" width="96.5" height="22" rx="10" ry="10"></rect>
<text x="829.25" y="124">endscript</text>
</g>
<path d="M877.5 120h10"></path>
<path d="M 887.5 120 h 20 m -10 -10 v 20 m 10 -20 v 20"></path>
</g>
</svg>
