<svg xmlns="http://www.w3.org/2000/svg" xmlns:xlink="http://www.w3.org/1999/xlink" class="railroad-diagram" width="482" height="520" viewBox="0 0 482 520">
  <defs>
    <style type="text/css"><![CDATA[
      path {
        stroke-width: 3;
        stroke: black;
        fill: rgba(0,0,0,0);
      }
      text {
        font: bold 14px monospace;
        text-anchor: middle;
        white-space: pre;
        fill: black;
      }
      text.diagram-text {
        font-size: 12px;
      }
      text.diagram-arrow {
        font-size: 16px;
      }
      text.label {
        text-anchor: start;
      }
      text.comment {
        font: italic 12px monospace;
      }
      rect {
        stroke-width: 3;
        stroke: black;
        fill: hsl(180,100%,90%);
      }
      rect[rx] {
        fill: hsl(120,100%,90%);
      }
      rect.group-box {
        stroke: gray;
        stroke-dasharray: 10 5;
        fill: none;
      }
      path.diagram-text {
        stroke-width: 3;
        stroke: black;
        fill: white;
        cursor: help;
      }
      g.diagram-text:hover path.diagram-text {
        fill: #eee;
      }
    ]]></style>
  </defs>

<g transform="translate(.5 .5)">
<g>
<path d="M20 21v20m10 -20v20m-10 -10h20"></path>
</g>
<g>
<path d="M40 31h0"></path>
<path d="M442 31h0"></path>
<path d="M40 31h20"></path>
<g class="non-terminal">
<path d="M60 31h111.5"></path>
<path d="M310.5 31h111.5"></path>
<rect x="171.5" y="20" width="139" height="22"></rect>
<a xlink:href="#labelstatement"><text x="241" y="35">LabelStatement</text>
</a>
</g>
<path d="M422 31h20"></path>
<path d="M40 31a10 10 0 0 1 10 10v10a10 10 0 0 0 10 10"></path>
<g>
<path d="M60 61h0"></path>
<path d="M422 61h0"></path>
<g>
<path d="M60 61h0"></path>
<path d="M307 61h0"></path>
<path d="M60 61h20"></path>
<g class="non-terminal">
<path d="M80 61h12.75"></path>
<path d="M274.25 61h12.75"></path>
<rect x="92.75" y="50" width="181.5" height="22"></rect>
<a xlink:href="#variabledeclaration"><text x="183.5" y="65">VariableDeclaration</text>
</a>
</g>
<path d="M287 61h20"></path>
<path d="M60 61a10 10 0 0 1 10 10v10a10 10 0 0 0 10 10"></path>
<g class="non-terminal">
<path d="M80 91h51"></path>
<path d="M236 91h51"></path>
<rect x="131" y="80" width="105" height="22"></rect>
<a xlink:href="#expression"><text x="183.5" y="95">Expression</text>
</a>
</g>
<path d="M287 91a10 10 0 0 0 10 -10v-10a10 10 0 0 1 10 -10"></path>
<path d="M60 61a10 10 0 0 1 10 10v40a10 10 0 0 0 10 10"></path>
<g class="non-terminal">
<path d="M80 121h46.75"></path>
<path d="M240.25 121h46.75"></path>
<rect x="126.75" y="110" width="113.5" height="22"></rect>
<a xlink:href="#ifstatement"><text x="183.5" y="125">IfStatement</text>
</a>
</g>
<path d="M287 121a10 10 0 0 0 10 -10v-40a10 10 0 0 1 10 -10"></path>
<path d="M60 61a10 10 0 0 1 10 10v70a10 10 0 0 0 10 10"></path>
<g class="non-terminal">
<path d="M80 151h29.75"></path>
<path d="M257.25 151h29.75"></path>
<rect x="109.75" y="140" width="147.5" height="22"></rect>
<a xlink:href="#switchstatement"><text x="183.5" y="155">SwitchStatement</text>
</a>
</g>
<path d="M287 151a10 10 0 0 0 10 -10v-70a10 10 0 0 1 10 -10"></path>
<path d="M60 61a10 10 0 0 1 10 10v100a10 10 0 0 0 10 10"></path>
<g class="non-terminal">
<path d="M80 181h34"></path>
<path d="M253 181h34"></path>
<rect x="114" y="170" width="139" height="22"></rect>
<a xlink:href="#whilestatement"><text x="183.5" y="185">WhileStatement</text>
</a>
</g>
<path d="M287 181a10 10 0 0 0 10 -10v-100a10 10 0 0 1 10 -10"></path>
<path d="M60 61a10 10 0 0 1 10 10v130a10 10 0 0 0 10 10"></path>
<g class="non-terminal">
<path d="M80 211h29.75"></path>
<path d="M257.25 211h29.75"></path>
<rect x="109.75" y="200" width="147.5" height="22"></rect>
<a xlink:href="#repeatstatement"><text x="183.5" y="215">RepeatStatement</text>
</a>
</g>
<path d="M287 211a10 10 0 0 0 10 -10v-130a10 10 0 0 1 10 -10"></path>
<path d="M60 61a10 10 0 0 1 10 10v160a10 10 0 0 0 10 10"></path>
<g class="non-terminal">
<path d="M80 241h42.5"></path>
<path d="M244.5 241h42.5"></path>
<rect x="122.5" y="230" width="122" height="22"></rect>
<a xlink:href="#forstatement"><text x="183.5" y="245">ForStatement</text>
</a>
</g>
<path d="M287 241a10 10 0 0 0 10 -10v-160a10 10 0 0 1 10 -10"></path>
<path d="M60 61a10 10 0 0 1 10 10v190a10 10 0 0 0 10 10"></path>
<g class="non-terminal">
<path d="M80 271h25.5"></path>
<path d="M261.5 271h25.5"></path>
<rect x="105.5" y="260" width="156" height="22"></rect>
<a xlink:href="#foreachstatement"><text x="183.5" y="275">ForEachStatement</text>
</a>
</g>
<path d="M287 271a10 10 0 0 0 10 -10v-190a10 10 0 0 1 10 -10"></path>
<path d="M60 61a10 10 0 0 1 10 10v220a10 10 0 0 0 10 10"></path>
<g class="non-terminal">
<path d="M80 301h0"></path>
<path d="M287 301h0"></path>
<rect x="80" y="290" width="207" height="22"></rect>
<a xlink:href="#structuredforstatement"><text x="183.5" y="305">StructuredForStatement</text>
</a>
</g>
<path d="M287 301a10 10 0 0 0 10 -10v-220a10 10 0 0 1 10 -10"></path>
<path d="M60 61a10 10 0 0 1 10 10v250a10 10 0 0 0 10 10"></path>
<g class="non-terminal">
<path d="M80 331h38.25"></path>
<path d="M248.75 331h38.25"></path>
<rect x="118.25" y="320" width="130.5" height="22"></rect>
<a xlink:href="#gotostatement"><text x="183.5" y="335">GotoStatement</text>
</a>
</g>
<path d="M287 331a10 10 0 0 0 10 -10v-250a10 10 0 0 1 10 -10"></path>
<path d="M60 61a10 10 0 0 1 10 10v280a10 10 0 0 0 10 10"></path>
<g class="non-terminal">
<path d="M80 361h29.75"></path>
<path d="M257.25 361h29.75"></path>
<rect x="109.75" y="350" width="147.5" height="22"></rect>
<a xlink:href="#returnstatement"><text x="183.5" y="365">ReturnStatement</text>
</a>
</g>
<path d="M287 361a10 10 0 0 0 10 -10v-280a10 10 0 0 1 10 -10"></path>
<path d="M60 61a10 10 0 0 1 10 10v310a10 10 0 0 0 10 10"></path>
<g class="non-terminal">
<path d="M80 391h34"></path>
<path d="M253 391h34"></path>
<rect x="114" y="380" width="139" height="22"></rect>
<a xlink:href="#breakstatement"><text x="183.5" y="395">BreakStatement</text>
</a>
</g>
<path d="M287 391a10 10 0 0 0 10 -10v-310a10 10 0 0 1 10 -10"></path>
<path d="M60 61a10 10 0 0 1 10 10v340a10 10 0 0 0 10 10"></path>
<g class="non-terminal">
<path d="M80 421h21.25"></path>
<path d="M265.75 421h21.25"></path>
<rect x="101.25" y="410" width="164.5" height="22"></rect>
<a xlink:href="#continuestatement"><text x="183.5" y="425">ContinueStatement</text>
</a>
</g>
<path d="M287 421a10 10 0 0 0 10 -10v-340a10 10 0 0 1 10 -10"></path>
<path d="M60 61a10 10 0 0 1 10 10v370a10 10 0 0 0 10 10"></path>
<g class="non-terminal">
<path d="M80 451h25.5"></path>
<path d="M261.5 451h25.5"></path>
<rect x="105.5" y="440" width="156" height="22"></rect>
<a xlink:href="#breakifstatement"><text x="183.5" y="455">BreakIfStatement</text>
</a>
</g>
<path d="M287 451a10 10 0 0 0 10 -10v-370a10 10 0 0 1 10 -10"></path>
<path d="M60 61a10 10 0 0 1 10 10v400a10 10 0 0 0 10 10"></path>
<g class="non-terminal">
<path d="M80 481h12.75"></path>
<path d="M274.25 481h12.75"></path>
<rect x="92.75" y="470" width="181.5" height="22"></rect>
<a xlink:href="#continueifstatement"><text x="183.5" y="485">ContinueIfStatement</text>
</a>
</g>
<path d="M287 481a10 10 0 0 0 10 -10v-400a10 10 0 0 1 10 -10"></path>
<path d="M60 61a10 10 0 0 1 10 10v419a10 10 0 0 0 10 10"></path>
<g>
<path d="M80 500h207"></path>
</g>
<path d="M287 500a10 10 0 0 0 10 -10v-419a10 10 0 0 1 10 -10"></path>
</g>
<path d="M307 61h10"></path>
<g class="terminal">
<path d="M317 61h0"></path>
<path d="M422 61h0"></path>
<rect x="317" y="50" width="105" height="22" rx="10" ry="10"></rect>
<text x="369.5" y="65">\r?\n or ;</text>
</g>
</g>
<path d="M422 61a10 10 0 0 0 10 -10v-10a10 10 0 0 1 10 -10"></path>
</g>
<path d="M 442 31 h 20 m -10 -10 v 20 m 10 -20 v 20"></path>
</g>
</svg>
