<svg xmlns="http://www.w3.org/2000/svg" xmlns:xlink="http://www.w3.org/1999/xlink" class="railroad-diagram" width="352.5" height="122" viewBox="0 0 352.5 122">
  <defs>
    <style type="text/css"><![CDATA[
      path {
        stroke-width: 3;
        stroke: black;
        fill: rgba(0,0,0,0);
      }
      text {
        font: bold 14px monospace;
        text-anchor: middle;
        white-space: pre;
        fill: black;
      }
      text.diagram-text {
        font-size: 12px;
      }
      text.diagram-arrow {
        font-size: 16px;
      }
      text.label {
        text-anchor: start;
      }
      text.comment {
        font: italic 12px monospace;
      }
      rect {
        stroke-width: 3;
        stroke: black;
        fill: hsl(180,100%,90%);
      }
      rect[rx] {
        fill: hsl(120,100%,90%);
      }
      rect.group-box {
        stroke: gray;
        stroke-dasharray: 10 5;
        fill: none;
      }
      path.diagram-text {
        stroke-width: 3;
        stroke: black;
        fill: white;
        cursor: help;
      }
      g.diagram-text:hover path.diagram-text {
        fill: #eee;
      }
    ]]></style>
  </defs>

<g transform="translate(.5 .5)">
<g>
<path d="M20 21v20m10 -20v20m-10 -10h20"></path>
</g>
<g>
<path d="M40 31h0"></path>
<path d="M312.5 31h0"></path>
<path d="M40 31h20"></path>
<g class="non-terminal">
<path d="M60 31h0"></path>
<path d="M292.5 31h0"></path>
<rect x="60" y="20" width="232.5" height="22"></rect>
<a xlink:href="#singlequotedstringliteral"><text x="176.25" y="35">SingleQuotedStringLiteral</text>
</a>
</g>
<path d="M292.5 31h20"></path>
<path d="M40 31a10 10 0 0 1 10 10v10a10 10 0 0 0 10 10"></path>
<g class="non-terminal">
<path d="M60 61h0"></path>
<path d="M292.5 61h0"></path>
<rect x="60" y="50" width="232.5" height="22"></rect>
<a xlink:href="#doublequotedstringliteral"><text x="176.25" y="65">DoubleQuotedStringLiteral</text>
</a>
</g>
<path d="M292.5 61a10 10 0 0 0 10 -10v-10a10 10 0 0 1 10 -10"></path>
<path d="M40 31a10 10 0 0 1 10 10v40a10 10 0 0 0 10 10"></path>
<g class="non-terminal">
<path d="M60 91h8.5"></path>
<path d="M284 91h8.5"></path>
<rect x="68.5" y="80" width="215.5" height="22"></rect>
<a xlink:href="#backquotedstringliteral"><text x="176.25" y="95">BackQuotedStringLiteral</text>
</a>
</g>
<path d="M292.5 91a10 10 0 0 0 10 -10v-40a10 10 0 0 1 10 -10"></path>
</g>
<path d="M 312.5 31 h 20 m -10 -10 v 20 m 10 -20 v 20"></path>
</g>
</svg>
