<svg xmlns="http://www.w3.org/2000/svg" xmlns:xlink="http://www.w3.org/1999/xlink" class="railroad-diagram" width="821.5" height="210" viewBox="0 0 821.5 210">
  <defs>
    <style type="text/css"><![CDATA[
      path {
        stroke-width: 3;
        stroke: black;
        fill: rgba(0,0,0,0);
      }
      text {
        font: bold 14px monospace;
        text-anchor: middle;
        white-space: pre;
        fill: black;
      }
      text.diagram-text {
        font-size: 12px;
      }
      text.diagram-arrow {
        font-size: 16px;
      }
      text.label {
        text-anchor: start;
      }
      text.comment {
        font: italic 12px monospace;
      }
      rect {
        stroke-width: 3;
        stroke: black;
        fill: hsl(180,100%,90%);
      }
      rect[rx] {
        fill: hsl(120,100%,90%);
      }
      rect.group-box {
        stroke: gray;
        stroke-dasharray: 10 5;
        fill: none;
      }
      path.diagram-text {
        stroke-width: 3;
        stroke: black;
        fill: white;
        cursor: help;
      }
      g.diagram-text:hover path.diagram-text {
        fill: #eee;
      }
    ]]></style>
  </defs>

<g transform="translate(.5 .5)">
<g>
<path d="M20 21v20m10 -20v20m-10 -10h20"></path>
</g>
<path d="M40 31h10"></path>
<g>
<path d="M50 31h0"></path>
<path d="M50 31h10"></path>
<g class="terminal">
<path d="M60 31h27"></path>
<path d="M158 31h27"></path>
<rect x="87" y="20" width="71" height="22" rx="10" ry="10"></rect>
<text x="122.5" y="35">switch</text>
</g>
<path d="M185 31a10 10 0 0 1 10 10v0a10 10 0 0 1 -10 10h-125a10 10 0 0 0 -10 10v0a10 10 0 0 0 10 10"></path>
<g class="non-terminal">
<path d="M60 71h10"></path>
<path d="M175 71h10"></path>
<rect x="70" y="60" width="105" height="22"></rect>
<a xlink:href="#expression"><text x="122.5" y="75">Expression</text>
</a>
</g>
<path d="M185 71a10 10 0 0 1 10 10v0a10 10 0 0 1 -10 10h-125a10 10 0 0 0 -10 10v0a10 10 0 0 0 10 10"></path>
<g class="terminal">
<path d="M60 111h10"></path>
<path d="M175 111h10"></path>
<rect x="70" y="100" width="105" height="22" rx="10" ry="10"></rect>
<text x="122.5" y="115">\r?\n or ;</text>
</g>
<path d="M185 111h10"></path>
<path d="M195 111h0"></path>
</g>
<path d="M195 111h10"></path>
<g>
<path d="M205 111h0"></path>
<path d="M716 111h0"></path>
<path d="M205 111a10 10 0 0 0 10 -10v-8a10 10 0 0 1 10 -10"></path>
<g>
<path d="M225 83h471"></path>
</g>
<path d="M696 83a10 10 0 0 1 10 10v8a10 10 0 0 0 10 10"></path>
<path d="M205 111h20"></path>
<g>
<path d="M225 111h0"></path>
<path d="M696 111h0"></path>
<path d="M225 111h10"></path>
<g>
<path d="M235 111h0"></path>
<path d="M686 111h0"></path>
<g>
<path d="M235 111h0"></path>
<path d="M474 111h0"></path>
<path d="M235 111h20"></path>
<g>
<path d="M255 111h0"></path>
<path d="M454 111h0"></path>
<g class="terminal">
<path d="M255 111h0"></path>
<path d="M309 111h0"></path>
<rect x="255" y="100" width="54" height="22" rx="10" ry="10"></rect>
<text x="282" y="115">case</text>
</g>
<path d="M309 111h10"></path>
<path d="M319 111h10"></path>
<g>
<path d="M329 111h0"></path>
<path d="M454 111h0"></path>
<path d="M329 111h10"></path>
<g class="non-terminal">
<path d="M339 111h0"></path>
<path d="M444 111h0"></path>
<rect x="339" y="100" width="105" height="22"></rect>
<a xlink:href="#expression"><text x="391.5" y="115">Expression</text>
</a>
</g>
<path d="M444 111h10"></path>
<path d="M339 111a10 10 0 0 0 -10 10v10a10 10 0 0 0 10 10"></path>
<g class="terminal">
<path d="M339 141h38.25"></path>
<path d="M405.75 141h38.25"></path>
<rect x="377.25" y="130" width="28.5" height="22" rx="10" ry="10"></rect>
<text x="391.5" y="145">,</text>
</g>
<path d="M444 141a10 10 0 0 0 10 -10v-10a10 10 0 0 0 -10 -10"></path>
</g>
</g>
<path d="M454 111h20"></path>
<path d="M235 111a10 10 0 0 1 10 10v40a10 10 0 0 0 10 10"></path>
<g class="terminal">
<path d="M255 171h59.75"></path>
<path d="M394.25 171h59.75"></path>
<rect x="314.75" y="160" width="79.5" height="22" rx="10" ry="10"></rect>
<text x="354.5" y="175">default</text>
</g>
<path d="M454 171a10 10 0 0 0 10 -10v-40a10 10 0 0 1 10 -10"></path>
</g>
<g>
<path d="M474 111h0"></path>
<path d="M630.5 111h0"></path>
<path d="M474 111a10 10 0 0 0 10 -10v0a10 10 0 0 1 10 -10"></path>
<g>
<path d="M494 91h116.5"></path>
</g>
<path d="M610.5 91a10 10 0 0 1 10 10v0a10 10 0 0 0 10 10"></path>
<path d="M474 111h20"></path>
<g>
<path d="M494 111h0"></path>
<path d="M610.5 111h0"></path>
<path d="M494 111h10"></path>
<g class="non-terminal">
<path d="M504 111h0"></path>
<path d="M600.5 111h0"></path>
<rect x="504" y="100" width="96.5" height="22"></rect>
<a xlink:href="#statement"><text x="552.25" y="115">Statement</text>
</a>
</g>
<path d="M600.5 111h10"></path>
<path d="M504 111a10 10 0 0 0 -10 10v0a10 10 0 0 0 10 10"></path>
<g>
<path d="M504 131h96.5"></path>
</g>
<path d="M600.5 131a10 10 0 0 0 10 -10v0a10 10 0 0 0 -10 -10"></path>
</g>
<path d="M610.5 111h20"></path>
</g>
<path d="M630.5 111h10"></path>
<g class="terminal">
<path d="M640.5 111h0"></path>
<path d="M686 111h0"></path>
<rect x="640.5" y="100" width="45.5" height="22" rx="10" ry="10"></rect>
<text x="663.25" y="115">end</text>
</g>
</g>
<path d="M686 111h10"></path>
<path d="M235 111a10 10 0 0 0 -10 10v59a10 10 0 0 0 10 10"></path>
<g>
<path d="M235 190h451"></path>
</g>
<path d="M686 190a10 10 0 0 0 10 -10v-59a10 10 0 0 0 -10 -10"></path>
</g>
<path d="M696 111h20"></path>
</g>
<path d="M716 111h10"></path>
<g class="terminal">
<path d="M726 111h0"></path>
<path d="M771.5 111h0"></path>
<rect x="726" y="100" width="45.5" height="22" rx="10" ry="10"></rect>
<text x="748.75" y="115">end</text>
</g>
<path d="M771.5 111h10"></path>
<path d="M 781.5 111 h 20 m -10 -10 v 20 m 10 -20 v 20"></path>
</g>
</svg>
