<svg xmlns="http://www.w3.org/2000/svg" xmlns:xlink="http://www.w3.org/1999/xlink" class="railroad-diagram" width="478" height="169" viewBox="0 0 478 169">
  <defs>
    <style type="text/css"><![CDATA[
      path {
        stroke-width: 3;
        stroke: black;
        fill: rgba(0,0,0,0);
      }
      text {
        font: bold 14px monospace;
        text-anchor: middle;
        white-space: pre;
        fill: black;
      }
      text.diagram-text {
        font-size: 12px;
      }
      text.diagram-arrow {
        font-size: 16px;
      }
      text.label {
        text-anchor: start;
      }
      text.comment {
        font: italic 12px monospace;
      }
      rect {
        stroke-width: 3;
        stroke: black;
        fill: hsl(180,100%,90%);
      }
      rect[rx] {
        fill: hsl(120,100%,90%);
      }
      rect.group-box {
        stroke: gray;
        stroke-dasharray: 10 5;
        fill: none;
      }
      path.diagram-text {
        stroke-width: 3;
        stroke: black;
        fill: white;
        cursor: help;
      }
      g.diagram-text:hover path.diagram-text {
        fill: #eee;
      }
    ]]></style>
  </defs>

<g transform="translate(.5 .5)">
<g>
<path d="M20 30v20m10 -20v20m-10 -10h20"></path>
</g>
<g>
<path d="M40 40h0"></path>
<path d="M185.5 40h0"></path>
<path d="M40 40a10 10 0 0 0 10 -10v0a10 10 0 0 1 10 -10"></path>
<g>
<path d="M60 20h105.5"></path>
</g>
<path d="M165.5 20a10 10 0 0 1 10 10v0a10 10 0 0 0 10 10"></path>
<path d="M40 40h20"></path>
<g>
<path d="M60 40h0"></path>
<path d="M165.5 40h0"></path>
<path d="M60 40h10"></path>
<g>
<path d="M70 40h0"></path>
<path d="M155.5 40h0"></path>
<path d="M70 40h20"></path>
<g class="terminal">
<path d="M90 40h8.5"></path>
<path d="M127 40h8.5"></path>
<rect x="98.5" y="29" width="28.5" height="22" rx="10" ry="10"></rect>
<text x="112.75" y="44">-</text>
</g>
<path d="M135.5 40h20"></path>
<path d="M70 40a10 10 0 0 1 10 10v10a10 10 0 0 0 10 10"></path>
<g class="terminal">
<path d="M90 70h8.5"></path>
<path d="M127 70h8.5"></path>
<rect x="98.5" y="59" width="28.5" height="22" rx="10" ry="10"></rect>
<text x="112.75" y="74">!</text>
</g>
<path d="M135.5 70a10 10 0 0 0 10 -10v-10a10 10 0 0 1 10 -10"></path>
<path d="M70 40a10 10 0 0 1 10 10v40a10 10 0 0 0 10 10"></path>
<g class="terminal">
<path d="M90 100h8.5"></path>
<path d="M127 100h8.5"></path>
<rect x="98.5" y="89" width="28.5" height="22" rx="10" ry="10"></rect>
<text x="112.75" y="104">~</text>
</g>
<path d="M135.5 100a10 10 0 0 0 10 -10v-40a10 10 0 0 1 10 -10"></path>
<path d="M70 40a10 10 0 0 1 10 10v70a10 10 0 0 0 10 10"></path>
<g class="terminal">
<path d="M90 130h0"></path>
<path d="M135.5 130h0"></path>
<rect x="90" y="119" width="45.5" height="22" rx="10" ry="10"></rect>
<text x="112.75" y="134">not</text>
</g>
<path d="M135.5 130a10 10 0 0 0 10 -10v-70a10 10 0 0 1 10 -10"></path>
</g>
<path d="M155.5 40h10"></path>
<path d="M70 40a10 10 0 0 0 -10 10v89a10 10 0 0 0 10 10"></path>
<g>
<path d="M70 149h85.5"></path>
</g>
<path d="M155.5 149a10 10 0 0 0 10 -10v-89a10 10 0 0 0 -10 -10"></path>
</g>
<path d="M165.5 40h20"></path>
</g>
<path d="M185.5 40h10"></path>
<g class="non-terminal">
<path d="M195.5 40h0"></path>
<path d="M428 40h0"></path>
<rect x="195.5" y="29" width="232.5" height="22"></rect>
<a xlink:href="#memberslicecallexpression"><text x="311.75" y="44">MemberSliceCallExpression</text>
</a>
</g>
<path d="M428 40h10"></path>
<path d="M 438 40 h 20 m -10 -10 v 20 m 10 -20 v 20"></path>
</g>
</svg>
