<svg xmlns="http://www.w3.org/2000/svg" xmlns:xlink="http://www.w3.org/1999/xlink" class="railroad-diagram" width="502.5" height="101" viewBox="0 0 502.5 101">
  <defs>
    <style type="text/css"><![CDATA[
      path {
        stroke-width: 3;
        stroke: black;
        fill: rgba(0,0,0,0);
      }
      text {
        font: bold 14px monospace;
        text-anchor: middle;
        white-space: pre;
        fill: black;
      }
      text.diagram-text {
        font-size: 12px;
      }
      text.diagram-arrow {
        font-size: 16px;
      }
      text.label {
        text-anchor: start;
      }
      text.comment {
        font: italic 12px monospace;
      }
      rect {
        stroke-width: 3;
        stroke: black;
        fill: hsl(180,100%,90%);
      }
      rect[rx] {
        fill: hsl(120,100%,90%);
      }
      rect.group-box {
        stroke: gray;
        stroke-dasharray: 10 5;
        fill: none;
      }
      path.diagram-text {
        stroke-width: 3;
        stroke: black;
        fill: white;
        cursor: help;
      }
      g.diagram-text:hover path.diagram-text {
        fill: #eee;
      }
    ]]></style>
  </defs>

<g transform="translate(.5 .5)">
<g>
<path d="M20 30v20m10 -20v20m-10 -10h20"></path>
</g>
<path d="M40 40h10"></path>
<g class="non-terminal">
<path d="M50 40h0"></path>
<path d="M104 40h0"></path>
<rect x="50" y="29" width="54" height="22"></rect>
<a xlink:href="#type"><text x="77" y="44">Type</text>
</a>
</g>
<path d="M104 40h10"></path>
<path d="M114 40h10"></path>
<g>
<path d="M124 40h0"></path>
<path d="M452.5 40h0"></path>
<path d="M124 40h10"></path>
<g>
<path d="M134 40h0"></path>
<path d="M442.5 40h0"></path>
<g class="non-terminal">
<path d="M134 40h0"></path>
<path d="M239 40h0"></path>
<rect x="134" y="29" width="105" height="22"></rect>
<a xlink:href="#identifier"><text x="186.5" y="44">Identifier</text>
</a>
</g>
<path d="M239 40h10"></path>
<g>
<path d="M249 40h0"></path>
<path d="M442.5 40h0"></path>
<path d="M249 40a10 10 0 0 0 10 -10v0a10 10 0 0 1 10 -10"></path>
<g>
<path d="M269 20h153.5"></path>
</g>
<path d="M422.5 20a10 10 0 0 1 10 10v0a10 10 0 0 0 10 10"></path>
<path d="M249 40h20"></path>
<g>
<path d="M269 40h0"></path>
<path d="M422.5 40h0"></path>
<g class="terminal">
<path d="M269 40h0"></path>
<path d="M297.5 40h0"></path>
<rect x="269" y="29" width="28.5" height="22" rx="10" ry="10"></rect>
<text x="283.25" y="44">=</text>
</g>
<path d="M297.5 40h10"></path>
<path d="M307.5 40h10"></path>
<g class="non-terminal">
<path d="M317.5 40h0"></path>
<path d="M422.5 40h0"></path>
<rect x="317.5" y="29" width="105" height="22"></rect>
<a xlink:href="#expression"><text x="370" y="44">Expression</text>
</a>
</g>
</g>
<path d="M422.5 40h20"></path>
</g>
</g>
<path d="M442.5 40h10"></path>
<path d="M134 40a10 10 0 0 0 -10 10v10a10 10 0 0 0 10 10"></path>
<g class="terminal">
<path d="M134 70h140"></path>
<path d="M302.5 70h140"></path>
<rect x="274" y="59" width="28.5" height="22" rx="10" ry="10"></rect>
<text x="288.25" y="74">,</text>
</g>
<path d="M442.5 70a10 10 0 0 0 10 -10v-10a10 10 0 0 0 -10 -10"></path>
</g>
<path d="M452.5 40h10"></path>
<path d="M 462.5 40 h 20 m -10 -10 v 20 m 10 -20 v 20"></path>
</g>
</svg>
