<svg xmlns="http://www.w3.org/2000/svg" xmlns:xlink="http://www.w3.org/1999/xlink" class="railroad-diagram" width="634.5" height="80" viewBox="0 0 634.5 80">
  <defs>
    <style type="text/css"><![CDATA[
      path {
        stroke-width: 3;
        stroke: black;
        fill: rgba(0,0,0,0);
      }
      text {
        font: bold 14px monospace;
        text-anchor: middle;
        white-space: pre;
        fill: black;
      }
      text.diagram-text {
        font-size: 12px;
      }
      text.diagram-arrow {
        font-size: 16px;
      }
      text.label {
        text-anchor: start;
      }
      text.comment {
        font: italic 12px monospace;
      }
      rect {
        stroke-width: 3;
        stroke: black;
        fill: hsl(180,100%,90%);
      }
      rect[rx] {
        fill: hsl(120,100%,90%);
      }
      rect.group-box {
        stroke: gray;
        stroke-dasharray: 10 5;
        fill: none;
      }
      path.diagram-text {
        stroke-width: 3;
        stroke: black;
        fill: white;
        cursor: help;
      }
      g.diagram-text:hover path.diagram-text {
        fill: #eee;
      }
    ]]></style>
  </defs>

<g transform="translate(.5 .5)">
<g>
<path d="M20 30v20m10 -20v20m-10 -10h20"></path>
</g>
<path d="M40 40h10"></path>
<g class="terminal">
<path d="M50 40h0"></path>
<path d="M112.5 40h0"></path>
<rect x="50" y="29" width="62.5" height="22" rx="10" ry="10"></rect>
<text x="81.25" y="44">while</text>
</g>
<path d="M112.5 40h10"></path>
<path d="M122.5 40h10"></path>
<g class="non-terminal">
<path d="M132.5 40h0"></path>
<path d="M237.5 40h0"></path>
<rect x="132.5" y="29" width="105" height="22"></rect>
<a xlink:href="#expression"><text x="185" y="44">Expression</text>
</a>
</g>
<path d="M237.5 40h10"></path>
<path d="M247.5 40h10"></path>
<g class="terminal">
<path d="M257.5 40h0"></path>
<path d="M362.5 40h0"></path>
<rect x="257.5" y="29" width="105" height="22" rx="10" ry="10"></rect>
<text x="310" y="44">\r?\n or ;</text>
</g>
<path d="M362.5 40h10"></path>
<g>
<path d="M372.5 40h0"></path>
<path d="M529 40h0"></path>
<path d="M372.5 40a10 10 0 0 0 10 -10v0a10 10 0 0 1 10 -10"></path>
<g>
<path d="M392.5 20h116.5"></path>
</g>
<path d="M509 20a10 10 0 0 1 10 10v0a10 10 0 0 0 10 10"></path>
<path d="M372.5 40h20"></path>
<g>
<path d="M392.5 40h0"></path>
<path d="M509 40h0"></path>
<path d="M392.5 40h10"></path>
<g class="non-terminal">
<path d="M402.5 40h0"></path>
<path d="M499 40h0"></path>
<rect x="402.5" y="29" width="96.5" height="22"></rect>
<a xlink:href="#statement"><text x="450.75" y="44">Statement</text>
</a>
</g>
<path d="M499 40h10"></path>
<path d="M402.5 40a10 10 0 0 0 -10 10v0a10 10 0 0 0 10 10"></path>
<g>
<path d="M402.5 60h96.5"></path>
</g>
<path d="M499 60a10 10 0 0 0 10 -10v0a10 10 0 0 0 -10 -10"></path>
</g>
<path d="M509 40h20"></path>
</g>
<path d="M529 40h10"></path>
<g class="terminal">
<path d="M539 40h0"></path>
<path d="M584.5 40h0"></path>
<rect x="539" y="29" width="45.5" height="22" rx="10" ry="10"></rect>
<text x="561.75" y="44">end</text>
</g>
<path d="M584.5 40h10"></path>
<path d="M 594.5 40 h 20 m -10 -10 v 20 m 10 -20 v 20"></path>
</g>
</svg>
