<svg xmlns="http://www.w3.org/2000/svg" xmlns:xlink="http://www.w3.org/1999/xlink" class="railroad-diagram" width="475.5" height="62" viewBox="0 0 475.5 62">
  <defs>
    <style type="text/css"><![CDATA[
      path {
        stroke-width: 3;
        stroke: black;
        fill: rgba(0,0,0,0);
      }
      text {
        font: bold 14px monospace;
        text-anchor: middle;
        white-space: pre;
        fill: black;
      }
      text.diagram-text {
        font-size: 12px;
      }
      text.diagram-arrow {
        font-size: 16px;
      }
      text.label {
        text-anchor: start;
      }
      text.comment {
        font: italic 12px monospace;
      }
      rect {
        stroke-width: 3;
        stroke: black;
        fill: hsl(180,100%,90%);
      }
      rect[rx] {
        fill: hsl(120,100%,90%);
      }
      rect.group-box {
        stroke: gray;
        stroke-dasharray: 10 5;
        fill: none;
      }
      path.diagram-text {
        stroke-width: 3;
        stroke: black;
        fill: white;
        cursor: help;
      }
      g.diagram-text:hover path.diagram-text {
        fill: #eee;
      }
    ]]></style>
  </defs>

<g transform="translate(.5 .5)">
<g>
<path d="M20 21v20m10 -20v20m-10 -10h20"></path>
</g>
<path d="M40 31h10"></path>
<g class="terminal">
<path d="M50 31h0"></path>
<path d="M78.5 31h0"></path>
<rect x="50" y="20" width="28.5" height="22" rx="10" ry="10"></rect>
<text x="64.25" y="35">&#91;</text>
</g>
<path d="M78.5 31h10"></path>
<path d="M88.5 31h10"></path>
<g class="non-terminal">
<path d="M98.5 31h0"></path>
<path d="M203.5 31h0"></path>
<rect x="98.5" y="20" width="105" height="22"></rect>
<a xlink:href="#identifier"><text x="151" y="35">Identifier</text>
</a>
</g>
<path d="M203.5 31h10"></path>
<path d="M213.5 31h10"></path>
<g class="terminal">
<path d="M223.5 31h0"></path>
<path d="M252 31h0"></path>
<rect x="223.5" y="20" width="28.5" height="22" rx="10" ry="10"></rect>
<text x="237.75" y="35">.</text>
</g>
<path d="M252 31h10"></path>
<path d="M262 31h10"></path>
<g class="non-terminal">
<path d="M272 31h0"></path>
<path d="M377 31h0"></path>
<rect x="272" y="20" width="105" height="22"></rect>
<a xlink:href="#identifier"><text x="324.5" y="35">Identifier</text>
</a>
</g>
<path d="M377 31h10"></path>
<path d="M387 31h10"></path>
<g class="terminal">
<path d="M397 31h0"></path>
<path d="M425.5 31h0"></path>
<rect x="397" y="20" width="28.5" height="22" rx="10" ry="10"></rect>
<text x="411.25" y="35">&#93;</text>
</g>
<path d="M425.5 31h10"></path>
<path d="M 435.5 31 h 20 m -10 -10 v 20 m 10 -20 v 20"></path>
</g>
</svg>
